# xmcd
#
# Track frame offsets: 
#        150
#        31662
#        50112
#        76362
#        92037
#        121887
#        136737
#        159762
#
# Disc length: 2332 seconds
#
# Revision: 4
# Processed by: cddbd v1.5.2PL0 Copyright (c) Steve Scherf et al.
# Submitted via: ExactAudioCopy v0.99pb5
#
DISCID=56091a08
DTITLE=The Intruders - Save The Children
DYEAR=1973
DGENRE=R&B
TTITLE0=Save The Children
TTITLE1=Mother And Child Reunion
TTITLE2=I Wanna Know Your Name
TTITLE3=To Be Happy Is The Real Thing
TTITLE4=I'll Always Love My Mama
TTITLE5=Memories Are Here To Stay
TTITLE6=Teardrops
TTITLE7=Hang On In There
EXTD=
EXTT0=
EXTT1=
EXTT2=
EXTT3=
EXTT4=
EXTT5=
EXTT6=
EXTT7=
PLAYORDER=
